<svg xmlns="http://www.w3.org/2000/svg" width="462" height="941" viewBox="0 0 462 941">
  <g id="Group_241" data-name="Group 241" transform="translate(17 7)" opacity="0.054">
    <path id="Polygon_25" data-name="Polygon 25" d="M8.711,3.578a2,2,0,0,1,3.578,0l7.264,14.528A2,2,0,0,1,17.764,21H3.236a2,2,0,0,1-1.789-2.894Z" transform="translate(279.474 537.798) rotate(-9)" fill="#983cf7"/>
    <circle id="Ellipse_39" data-name="Ellipse 39" cx="10.5" cy="10.5" r="10.5" transform="translate(156 594)" fill="#983cf7"/>
    <rect id="Rectangle_90" data-name="Rectangle 90" width="21" height="21" rx="4" transform="translate(78 573)" fill="#983cf7"/>
    <circle id="Ellipse_21" data-name="Ellipse 21" cx="10.5" cy="10.5" r="10.5" transform="translate(139 818)" fill="#983cf7"/>
    <circle id="Ellipse_28" data-name="Ellipse 28" cx="10.5" cy="10.5" r="10.5" transform="translate(229 807)" fill="#983cf7"/>
    <path id="Polygon_5" data-name="Polygon 5" d="M8.711,3.578a2,2,0,0,1,3.578,0l7.264,14.528A2,2,0,0,1,17.764,21H3.236a2,2,0,0,1-1.789-2.894Z" transform="matrix(0.574, 0.819, -0.819, 0.574, 95.578, 759.029)" fill="#983cf7"/>
    <path id="Polygon_7" data-name="Polygon 7" d="M8.711,3.578a2,2,0,0,1,3.578,0l7.264,14.528A2,2,0,0,1,17.764,21H3.236a2,2,0,0,1-1.789-2.894Z" transform="translate(400.697 552.144) rotate(-171)" fill="#983cf7"/>
    <path id="Polygon_8" data-name="Polygon 8" d="M8.711,3.578a2,2,0,0,1,3.578,0l7.264,14.528A2,2,0,0,1,17.764,21H3.236a2,2,0,0,1-1.789-2.894Z" transform="translate(356.109 636.555) rotate(34)" fill="#983cf7"/>
    <circle id="Ellipse_11" data-name="Ellipse 11" cx="10.5" cy="10.5" r="10.5" transform="translate(210 513)" fill="#983cf7"/>
    <circle id="Ellipse_13" data-name="Ellipse 13" cx="10.5" cy="10.5" r="10.5" transform="translate(390 603)" fill="#983cf7"/>
    <circle id="Ellipse_18" data-name="Ellipse 18" cx="10.5" cy="10.5" r="10.5" transform="translate(43 637)" fill="#983cf7"/>
    <circle id="Ellipse_19" data-name="Ellipse 19" cx="10.5" cy="10.5" r="10.5" transform="translate(7 762)" fill="#983cf7"/>
    <circle id="Ellipse_20" data-name="Ellipse 20" cx="10.5" cy="10.5" r="10.5" transform="translate(45 822)" fill="#983cf7"/>
    <circle id="Ellipse_22" data-name="Ellipse 22" cx="10.5" cy="10.5" r="10.5" transform="translate(191 880)" fill="#983cf7"/>
    <circle id="Ellipse_26" data-name="Ellipse 26" cx="10.5" cy="10.5" r="10.5" transform="translate(293 853)" fill="#983cf7"/>
    <circle id="Ellipse_29" data-name="Ellipse 29" cx="10.5" cy="10.5" r="10.5" transform="translate(418 899)" fill="#983cf7"/>
    <circle id="Ellipse_30" data-name="Ellipse 30" cx="10.5" cy="10.5" r="10.5" transform="translate(371 729)" fill="#983cf7"/>
    <circle id="Ellipse_31" data-name="Ellipse 31" cx="10.5" cy="10.5" r="10.5" transform="translate(403 807)" fill="#983cf7"/>
    <path id="Polygon_9" data-name="Polygon 9" d="M8.711,3.578a2,2,0,0,1,3.578,0l7.264,14.528A2,2,0,0,1,17.764,21H3.236a2,2,0,0,1-1.789-2.894Z" transform="translate(249.784 895.87) rotate(-50)" fill="#983cf7"/>
    <path id="Polygon_10" data-name="Polygon 10" d="M8.711,3.578a2,2,0,0,1,3.578,0l7.264,14.528A2,2,0,0,1,17.764,21H3.236a2,2,0,0,1-1.789-2.894Z" transform="matrix(-0.985, -0.174, 0.174, -0.985, 382.982, 877.371)" fill="#983cf7"/>
    <path id="Polygon_11" data-name="Polygon 11" d="M8.711,3.578a2,2,0,0,1,3.578,0l7.264,14.528A2,2,0,0,1,17.764,21H3.236a2,2,0,0,1-1.789-2.894Z" transform="matrix(-0.985, -0.174, 0.174, -0.985, 133.052, 886.328)" fill="#983cf7"/>
    <rect id="Rectangle_91" data-name="Rectangle 91" width="21" height="21" rx="4" transform="translate(56 880)" fill="#983cf7"/>
    <rect id="Rectangle_92" data-name="Rectangle 92" width="21" height="21" rx="4" transform="translate(411 670)" fill="#983cf7"/>
    <rect id="Rectangle_93" data-name="Rectangle 93" width="21" height="21" rx="4" transform="translate(341 783)" fill="#983cf7"/>
    <rect id="Rectangle_95" data-name="Rectangle 95" width="21" height="21" rx="4" transform="translate(338 566)" fill="#983cf7"/>
    <path id="Polygon_14" data-name="Polygon 14" d="M8.711,3.578a2,2,0,0,1,3.578,0l7.264,14.528A2,2,0,0,1,17.764,21H3.236a2,2,0,0,1-1.789-2.894Z" transform="translate(57.576 542.401) rotate(146)" fill="#983cf7"/>
    <path id="Polygon_17" data-name="Polygon 17" d="M8.711,3.578a2,2,0,0,1,3.578,0l7.264,14.528A2,2,0,0,1,17.764,21H3.236a2,2,0,0,1-1.789-2.894Z" transform="translate(169.565 558.474) rotate(159)" fill="#983cf7"/>
    <circle id="Ellipse_50" data-name="Ellipse 50" cx="10.5" cy="10.5" r="10.5" transform="translate(387.469 160)" fill="#983cf7"/>
    <rect id="Rectangle_114" data-name="Rectangle 114" width="21" height="21" rx="4" transform="translate(5 583)" fill="#983cf7"/>
    <path id="Polygon_29" data-name="Polygon 29" d="M8.711,3.578a2,2,0,0,1,3.578,0l7.264,14.528A2,2,0,0,1,17.764,21H3.236a2,2,0,0,1-1.789-2.894Z" transform="translate(293.266 759.759) rotate(99)" fill="#983cf7"/>
    <path id="Polygon_30" data-name="Polygon 30" d="M8.711,3.578a2,2,0,0,1,3.578,0l7.264,14.528A2,2,0,0,1,17.764,21H3.236a2,2,0,0,1-1.789-2.894Z" transform="translate(111.908 665.487) rotate(-99)" fill="#983cf7"/>
    <circle id="Ellipse_56" data-name="Ellipse 56" cx="10.5" cy="10.5" r="10.5" transform="translate(218.739 728.018) rotate(-90)" fill="#983cf7"/>
    <rect id="Rectangle_115" data-name="Rectangle 115" width="21" height="21" rx="4" transform="translate(163.5 777.474) rotate(-90)" fill="#983cf7"/>
    <rect id="Rectangle_117" data-name="Rectangle 117" width="21" height="21" rx="4" transform="translate(199.5 663.974) rotate(-90)" fill="#983cf7"/>
    <rect id="Rectangle_116" data-name="Rectangle 116" width="21" height="21" rx="4" transform="translate(313 704)" fill="#983cf7"/>
    <path id="Polygon_31" data-name="Polygon 31" d="M8.711,3.578a2,2,0,0,1,3.578,0l7.264,14.528A2,2,0,0,1,17.764,21H3.236a2,2,0,0,1-1.789-2.894Z" transform="matrix(0.788, -0.616, 0.616, 0.788, 264.415, 670.19)" fill="#983cf7"/>
    <circle id="Ellipse_57" data-name="Ellipse 57" cx="10.5" cy="10.5" r="10.5" transform="translate(142.5 717.5) rotate(-90)" fill="#983cf7"/>
    <rect id="Rectangle_118" data-name="Rectangle 118" width="21" height="21" rx="4" transform="translate(48 704)" fill="#983cf7"/>
    <rect id="Rectangle_120" data-name="Rectangle 120" width="21" height="21" rx="4" transform="translate(226 577)" fill="#983cf7"/>
    <circle id="Ellipse_58" data-name="Ellipse 58" cx="10.5" cy="10.5" r="10.5" transform="translate(288.393 630.5) rotate(-90)" fill="#983cf7"/>
    <circle id="Ellipse_59" data-name="Ellipse 59" cx="10.5" cy="10.5" r="10.5" transform="translate(139 818)" fill="#983cf7"/>
    <circle id="Ellipse_60" data-name="Ellipse 60" cx="10.5" cy="10.5" r="10.5" transform="translate(229 807)" fill="#983cf7"/>
    <path id="Polygon_32" data-name="Polygon 32" d="M8.711,3.578a2,2,0,0,1,3.578,0l7.264,14.528A2,2,0,0,1,17.764,21H3.236a2,2,0,0,1-1.789-2.894Z" transform="matrix(0.574, 0.819, -0.819, 0.574, 95.578, 759.029)" fill="#983cf7"/>
    <circle id="Ellipse_61" data-name="Ellipse 61" cx="10.5" cy="10.5" r="10.5" transform="translate(7 762)" fill="#983cf7"/>
    <circle id="Ellipse_62" data-name="Ellipse 62" cx="10.5" cy="10.5" r="10.5" transform="translate(45 822)" fill="#983cf7"/>
    <circle id="Ellipse_63" data-name="Ellipse 63" cx="10.5" cy="10.5" r="10.5" transform="translate(191 880)" fill="#983cf7"/>
    <circle id="Ellipse_66" data-name="Ellipse 66" cx="10.5" cy="10.5" r="10.5" transform="translate(293 853)" fill="#983cf7"/>
    <circle id="Ellipse_68" data-name="Ellipse 68" cx="10.5" cy="10.5" r="10.5" transform="translate(418 899)" fill="#983cf7"/>
    <circle id="Ellipse_69" data-name="Ellipse 69" cx="10.5" cy="10.5" r="10.5" transform="translate(371 729)" fill="#983cf7"/>
    <circle id="Ellipse_70" data-name="Ellipse 70" cx="10.5" cy="10.5" r="10.5" transform="translate(403 807)" fill="#983cf7"/>
    <path id="Polygon_33" data-name="Polygon 33" d="M8.711,3.578a2,2,0,0,1,3.578,0l7.264,14.528A2,2,0,0,1,17.764,21H3.236a2,2,0,0,1-1.789-2.894Z" transform="translate(249.784 895.87) rotate(-50)" fill="#983cf7"/>
    <path id="Polygon_34" data-name="Polygon 34" d="M8.711,3.578a2,2,0,0,1,3.578,0l7.264,14.528A2,2,0,0,1,17.764,21H3.236a2,2,0,0,1-1.789-2.894Z" transform="matrix(-0.985, -0.174, 0.174, -0.985, 382.982, 877.371)" fill="#983cf7"/>
    <path id="Polygon_35" data-name="Polygon 35" d="M8.711,3.578a2,2,0,0,1,3.578,0l7.264,14.528A2,2,0,0,1,17.764,21H3.236a2,2,0,0,1-1.789-2.894Z" transform="matrix(-0.985, -0.174, 0.174, -0.985, 133.052, 886.328)" fill="#983cf7"/>
    <rect id="Rectangle_121" data-name="Rectangle 121" width="21" height="21" rx="4" transform="translate(56 880)" fill="#983cf7"/>
    <rect id="Rectangle_122" data-name="Rectangle 122" width="21" height="21" rx="4" transform="translate(411 670)" fill="#983cf7"/>
    <rect id="Rectangle_123" data-name="Rectangle 123" width="21" height="21" rx="4" transform="translate(341 783)" fill="#983cf7"/>
    <path id="Polygon_37" data-name="Polygon 37" d="M8.711,3.578a2,2,0,0,1,3.578,0l7.264,14.528A2,2,0,0,1,17.764,21H3.236a2,2,0,0,1-1.789-2.894Z" transform="translate(293.266 759.759) rotate(99)" fill="#983cf7"/>
    <circle id="Ellipse_71" data-name="Ellipse 71" cx="10.5" cy="10.5" r="10.5" transform="translate(218.739 728.018) rotate(-90)" fill="#983cf7"/>
    <rect id="Rectangle_124" data-name="Rectangle 124" width="21" height="21" rx="4" transform="translate(163.5 777.474) rotate(-90)" fill="#983cf7"/>
    <rect id="Rectangle_125" data-name="Rectangle 125" width="21" height="21" rx="4" transform="translate(313 704)" fill="#983cf7"/>
    <path id="Polygon_38" data-name="Polygon 38" d="M8.711,3.578a2,2,0,0,1,3.578,0l7.264,14.528A2,2,0,0,1,17.764,21H3.236a2,2,0,0,1-1.789-2.894Z" transform="matrix(0.788, -0.616, 0.616, 0.788, 264.415, 670.19)" fill="#983cf7"/>
    <circle id="Ellipse_72" data-name="Ellipse 72" cx="10.5" cy="10.5" r="10.5" transform="translate(142.5 717.5) rotate(-90)" fill="#983cf7"/>
    <rect id="Rectangle_126" data-name="Rectangle 126" width="21" height="21" rx="4" transform="translate(48 704)" fill="#983cf7"/>
    <path id="Polygon_39" data-name="Polygon 39" d="M8.711,3.578a2,2,0,0,1,3.578,0l7.264,14.528A2,2,0,0,1,17.764,21H3.236a2,2,0,0,1-1.789-2.894Z" transform="translate(285.474 94.798) rotate(-9)" fill="#983cf7"/>
    <circle id="Ellipse_73" data-name="Ellipse 73" cx="10.5" cy="10.5" r="10.5" transform="translate(162 151)" fill="#983cf7"/>
    <rect id="Rectangle_128" data-name="Rectangle 128" width="21" height="21" rx="4" transform="translate(84 130)" fill="#983cf7"/>
    <circle id="Ellipse_75" data-name="Ellipse 75" cx="10.5" cy="10.5" r="10.5" transform="translate(235 364)" fill="#983cf7"/>
    <path id="Polygon_40" data-name="Polygon 40" d="M8.711,3.578a2,2,0,0,1,3.578,0l7.264,14.528A2,2,0,0,1,17.764,21H3.236a2,2,0,0,1-1.789-2.894Z" transform="matrix(0.574, 0.819, -0.819, 0.574, 101.578, 316.029)" fill="#983cf7"/>
    <path id="Polygon_41" data-name="Polygon 41" d="M8.711,3.578a2,2,0,0,1,3.578,0l7.264,14.528A2,2,0,0,1,17.764,21H3.236a2,2,0,0,1-1.789-2.894Z" transform="translate(406.697 109.144) rotate(-171)" fill="#983cf7"/>
    <path id="Polygon_42" data-name="Polygon 42" d="M8.711,3.578a2,2,0,0,1,3.578,0l7.264,14.528A2,2,0,0,1,17.764,21H3.236a2,2,0,0,1-1.789-2.894Z" transform="translate(366.666 210) rotate(34)" fill="#983cf7"/>
    <circle id="Ellipse_76" data-name="Ellipse 76" cx="10.5" cy="10.5" r="10.5" transform="translate(216 70)" fill="#983cf7"/>
    <circle id="Ellipse_78" data-name="Ellipse 78" cx="10.5" cy="10.5" r="10.5" transform="translate(52 70)" fill="#983cf7"/>
    <circle id="Ellipse_79" data-name="Ellipse 79" cx="10.5" cy="10.5" r="10.5" transform="translate(49 194)" fill="#983cf7"/>
    <circle id="Ellipse_80" data-name="Ellipse 80" cx="10.5" cy="10.5" r="10.5" transform="translate(13 319)" fill="#983cf7"/>
    <circle id="Ellipse_81" data-name="Ellipse 81" cx="10.5" cy="10.5" r="10.5" transform="translate(51 379)" fill="#983cf7"/>
    <circle id="Ellipse_82" data-name="Ellipse 82" cx="10.5" cy="10.5" r="10.5" transform="translate(197 437)" fill="#983cf7"/>
    <circle id="Ellipse_83" data-name="Ellipse 83" cx="10.5" cy="10.5" r="10.5" transform="translate(96 492)" fill="#983cf7"/>
    <circle id="Ellipse_85" data-name="Ellipse 85" cx="10.5" cy="10.5" r="10.5" transform="translate(305 394)" fill="#983cf7"/>
    <circle id="Ellipse_86" data-name="Ellipse 86" cx="10.5" cy="10.5" r="10.5" transform="translate(365 467)" fill="#983cf7"/>
    <circle id="Ellipse_88" data-name="Ellipse 88" cx="10.5" cy="10.5" r="10.5" transform="translate(377 286)" fill="#983cf7"/>
    <path id="Polygon_43" data-name="Polygon 43" d="M8.711,3.578a2,2,0,0,1,3.578,0l7.264,14.528A2,2,0,0,1,17.764,21H3.236a2,2,0,0,1-1.789-2.894Z" transform="translate(255.784 452.87) rotate(-50)" fill="#983cf7"/>
    <path id="Polygon_44" data-name="Polygon 44" d="M8.711,3.578a2,2,0,0,1,3.578,0l7.264,14.528A2,2,0,0,1,17.764,21H3.236a2,2,0,0,1-1.789-2.894Z" transform="matrix(-0.985, -0.174, 0.174, -0.985, 388.982, 434.371)" fill="#983cf7"/>
    <path id="Polygon_45" data-name="Polygon 45" d="M8.711,3.578a2,2,0,0,1,3.578,0l7.264,14.528A2,2,0,0,1,17.764,21H3.236a2,2,0,0,1-1.789-2.894Z" transform="matrix(-0.985, -0.174, 0.174, -0.985, 139.052, 443.328)" fill="#983cf7"/>
    <path id="Polygon_46" data-name="Polygon 46" d="M8.711,3.578a2,2,0,0,1,3.578,0l7.264,14.528A2,2,0,0,1,17.764,21H3.236a2,2,0,0,1-1.789-2.894Z" transform="translate(19.5 237.5) rotate(90)" fill="#983cf7"/>
    <rect id="Rectangle_129" data-name="Rectangle 129" width="21" height="21" rx="4" transform="translate(62 437)" fill="#983cf7"/>
    <rect id="Rectangle_131" data-name="Rectangle 131" width="21" height="21" rx="4" transform="translate(347 340)" fill="#983cf7"/>
    <rect id="Rectangle_132" data-name="Rectangle 132" width="21" height="21" rx="4" transform="translate(350 123)" fill="#983cf7"/>
    <path id="Polygon_47" data-name="Polygon 47" d="M8.711,3.578a2,2,0,0,1,3.578,0l7.264,14.528A2,2,0,0,1,17.764,21H3.236a2,2,0,0,1-1.789-2.894Z" transform="translate(45 139.257) rotate(146)" fill="#983cf7"/>
    <path id="Polygon_48" data-name="Polygon 48" d="M8.711,3.578a2,2,0,0,1,3.578,0l7.264,14.528A2,2,0,0,1,17.764,21H3.236a2,2,0,0,1-1.789-2.894Z" transform="translate(175.565 115.474) rotate(159)" fill="#983cf7"/>
    <path id="Polygon_49" data-name="Polygon 49" d="M8.711,3.578a2,2,0,0,1,3.578,0l7.264,14.528A2,2,0,0,1,17.764,21H3.236a2,2,0,0,1-1.789-2.894Z" transform="translate(299.266 316.759) rotate(99)" fill="#983cf7"/>
    <path id="Polygon_50" data-name="Polygon 50" d="M8.711,3.578a2,2,0,0,1,3.578,0l7.264,14.528A2,2,0,0,1,17.764,21H3.236a2,2,0,0,1-1.789-2.894Z" transform="translate(117.908 222.487) rotate(-99)" fill="#983cf7"/>
    <circle id="Ellipse_90" data-name="Ellipse 90" cx="10.5" cy="10.5" r="10.5" transform="translate(224.739 285.018) rotate(-90)" fill="#983cf7"/>
    <rect id="Rectangle_134" data-name="Rectangle 134" width="21" height="21" rx="4" transform="translate(169.5 334.474) rotate(-90)" fill="#983cf7"/>
    <rect id="Rectangle_135" data-name="Rectangle 135" width="21" height="21" rx="4" transform="translate(205.5 220.974) rotate(-90)" fill="#983cf7"/>
    <rect id="Rectangle_136" data-name="Rectangle 136" width="21" height="21" rx="4" transform="translate(319 261)" fill="#983cf7"/>
    <path id="Polygon_51" data-name="Polygon 51" d="M8.711,3.578a2,2,0,0,1,3.578,0l7.264,14.528A2,2,0,0,1,17.764,21H3.236a2,2,0,0,1-1.789-2.894Z" transform="matrix(0.788, -0.616, 0.616, 0.788, 270.415, 227.19)" fill="#983cf7"/>
    <circle id="Ellipse_91" data-name="Ellipse 91" cx="10.5" cy="10.5" r="10.5" transform="translate(148.5 274.5) rotate(-90)" fill="#983cf7"/>
    <rect id="Rectangle_137" data-name="Rectangle 137" width="21" height="21" rx="4" transform="translate(54 261)" fill="#983cf7"/>
    <rect id="Rectangle_139" data-name="Rectangle 139" width="21" height="21" rx="4" transform="translate(232 134)" fill="#983cf7"/>
    <circle id="Ellipse_92" data-name="Ellipse 92" cx="10.5" cy="10.5" r="10.5" transform="translate(294.393 187.5) rotate(-90)" fill="#983cf7"/>
    <path id="Polygon_55" data-name="Polygon 55" d="M8.711,3.578a2,2,0,0,1,3.578,0l7.264,14.528A2,2,0,0,1,17.764,21H3.236a2,2,0,0,1-1.789-2.894Z" transform="matrix(-0.985, -0.174, 0.174, -0.985, 176.681, 397.775)" fill="#983cf7"/>
    <circle id="Ellipse_89" data-name="Ellipse 89" cx="10.5" cy="10.5" r="10.5" transform="translate(409 364)" fill="#983cf7"/>
    <rect id="Rectangle_130" data-name="Rectangle 130" width="21" height="21" rx="4" transform="translate(417 227)" fill="#983cf7"/>
    <rect id="Rectangle_147" data-name="Rectangle 147" width="21" height="21" rx="4" transform="translate(309 488)" fill="#983cf7"/>
    <rect id="Rectangle_149" data-name="Rectangle 149" width="21" height="21" rx="4" transform="translate(108 39)" fill="#983cf7"/>
    <path id="Polygon_56" data-name="Polygon 56" d="M8.711,3.578a2,2,0,0,1,3.578,0l7.264,14.528A2,2,0,0,1,17.764,21H3.236a2,2,0,0,1-1.789-2.894Z" transform="translate(51.657 4.313) rotate(30)" fill="#983cf7"/>
    <circle id="Ellipse_93" data-name="Ellipse 93" cx="10.5" cy="10.5" r="10.5" transform="translate(143 -7)" fill="#983cf7"/>
    <rect id="Rectangle_150" data-name="Rectangle 150" width="21" height="21" rx="4" transform="translate(271 33)" fill="#983cf7"/>
    <circle id="Ellipse_94" data-name="Ellipse 94" cx="10.5" cy="10.5" r="10.5" transform="translate(339 52)" fill="#983cf7"/>
    <path id="Polygon_57" data-name="Polygon 57" d="M8.711,3.578a2,2,0,0,1,3.578,0l7.264,14.528A2,2,0,0,1,17.764,21H3.236a2,2,0,0,1-1.789-2.894Z" transform="matrix(0.985, 0.174, -0.174, 0.985, 377.438, 10.085)" fill="#983cf7"/>
    <circle id="Ellipse_87" data-name="Ellipse 87" cx="10.5" cy="10.5" r="10.5" transform="translate(424 456)" fill="#983cf7"/>
    <circle id="Ellipse_23" data-name="Ellipse 23" cx="10.5" cy="10.5" r="10.5" transform="translate(116 913)" fill="#983cf7"/>
    <circle id="Ellipse_24" data-name="Ellipse 24" cx="10.5" cy="10.5" r="10.5" transform="translate(-14 899)" fill="#983cf7"/>
    <circle id="Ellipse_27" data-name="Ellipse 27" cx="10.5" cy="10.5" r="10.5" transform="translate(359 910)" fill="#983cf7"/>
    <path id="Polygon_13" data-name="Polygon 13" d="M8.711,3.578a2,2,0,0,1,3.578,0l7.264,14.528A2,2,0,0,1,17.764,21H3.236a2,2,0,0,1-1.789-2.894Z" transform="translate(13.5 680.5) rotate(90)" fill="#983cf7"/>
    <path id="Polygon_24" data-name="Polygon 24" d="M8.711,3.578a2,2,0,0,1,3.578,0l7.264,14.528A2,2,0,0,1,17.764,21H3.236a2,2,0,0,1-1.789-2.894Z" transform="translate(4.25 215) rotate(90)" fill="#c16aee"/>
    <rect id="Rectangle_119" data-name="Rectangle 119" width="21" height="21" rx="4" transform="translate(-14 820)" fill="#983cf7"/>
    <circle id="Ellipse_64" data-name="Ellipse 64" cx="10.5" cy="10.5" r="10.5" transform="translate(116 913)" fill="#983cf7"/>
    <circle id="Ellipse_65" data-name="Ellipse 65" cx="10.5" cy="10.5" r="10.5" transform="translate(-14 899)" fill="#983cf7"/>
    <circle id="Ellipse_67" data-name="Ellipse 67" cx="10.5" cy="10.5" r="10.5" transform="translate(359 910)" fill="#983cf7"/>
    <path id="Polygon_36" data-name="Polygon 36" d="M8.711,3.578a2,2,0,0,1,3.578,0l7.264,14.528A2,2,0,0,1,17.764,21H3.236a2,2,0,0,1-1.789-2.894Z" transform="translate(13.5 680.5) rotate(90)" fill="#983cf7"/>
    <rect id="Rectangle_127" data-name="Rectangle 127" width="21" height="21" rx="4" transform="translate(-14 820)" fill="#983cf7"/>
    <circle id="Ellipse_84" data-name="Ellipse 84" cx="10.5" cy="10.5" r="10.5" transform="translate(-8 456)" fill="#983cf7"/>
    <rect id="Rectangle_133" data-name="Rectangle 133" width="21" height="21" rx="4" transform="translate(-14 60)" fill="#983cf7"/>
    <rect id="Rectangle_138" data-name="Rectangle 138" width="21" height="21" rx="4" transform="translate(-8 377)" fill="#983cf7"/>
    <rect id="Rectangle_148" data-name="Rectangle 148" width="21" height="21" rx="4" transform="translate(-17 181)" fill="#eaccf9"/>
  </g>
</svg>
